<svg width="44" height="40" viewBox="0 0 44 40" fill="none" xmlns="http://www.w3.org/2000/svg">
<path d="M8.375 27.2917C8.375 28.0971 9.02792 28.75 9.83333 28.75H33.1667C33.9721 28.75 34.625 28.0971 34.625 27.2917C34.625 26.4863 33.9721 25.8333 33.1667 25.8333H9.83333C9.02792 25.8333 8.375 26.4863 8.375 27.2917ZM8.375 20C8.375 20.8054 9.02792 21.4583 9.83333 21.4583H33.1667C33.9721 21.4583 34.625 20.8054 34.625 20C34.625 19.1946 33.9721 18.5417 33.1667 18.5417H9.83333C9.02792 18.5417 8.375 19.1946 8.375 20ZM9.83333 11.25C9.02792 11.25 8.375 11.9029 8.375 12.7083C8.375 13.5137 9.02792 14.1667 9.83333 14.1667H33.1667C33.9721 14.1667 34.625 13.5137 34.625 12.7083C34.625 11.9029 33.9721 11.25 33.1667 11.25H9.83333Z" fill="#0B457F"/>
</svg>
